<?xml version="1.0" encoding="utf-8" standalone="no"?>
<!DOCTYPE svg PUBLIC "-//W3C//DTD SVG 1.1//EN"
  "http://www.w3.org/Graphics/SVG/1.1/DTD/svg11.dtd">
<svg xmlns:xlink="http://www.w3.org/1999/xlink" width="662.61pt" height="288pt" viewBox="0 0 662.61 288" xmlns="http://www.w3.org/2000/svg" version="1.1">
 <metadata>
  <rdf:RDF xmlns:dc="http://purl.org/dc/elements/1.1/" xmlns:cc="http://creativecommons.org/ns#" xmlns:rdf="http://www.w3.org/1999/02/22-rdf-syntax-ns#">
   <cc:Work>
    <dc:type rdf:resource="http://purl.org/dc/dcmitype/StillImage"/>
    <dc:date>2024-10-30T17:58:21.419772</dc:date>
    <dc:format>image/svg+xml</dc:format>
    <dc:creator>
     <cc:Agent>
      <dc:title>Matplotlib v3.9.2, https://matplotlib.org/</dc:title>
     </cc:Agent>
    </dc:creator>
   </cc:Work>
  </rdf:RDF>
 </metadata>
 <defs>
  <style type="text/css">*{stroke-linejoin: round; stroke-linecap: butt}</style>
 </defs>
 <g id="figure_1">
  <g id="patch_1">
   <path d="M 0 288 
L 662.61 288 
L 662.61 0 
L 0 0 
z
" style="fill: #ffffff"/>
  </g>
  <g id="axes_1">
   <g id="patch_2">
    <path d="M 72.107153 232.788 
L 569.3739 232.788 
L 569.3739 15.552 
L 72.107153 15.552 
z
" style="fill: #ffffff"/>
   </g>
   <g id="matplotlib.axis_1">
    <g id="xtick_1">
     <g id="text_1">
      <!-- 10 -->
      <g style="fill: #262626" transform="translate(94.787825 251.117937) scale(0.132 -0.132)">
       <defs>
        <path id="DejaVuSans-31" d="M 794 531 
L 1825 531 
L 1825 4091 
L 703 3866 
L 703 4441 
L 1819 4666 
L 2450 4666 
L 2450 531 
L 3481 531 
L 3481 0 
L 794 0 
L 794 531 
z
" transform="scale(0.015625)"/>
        <path id="DejaVuSans-30" d="M 2034 4250 
Q 1547 4250 1301 3770 
Q 1056 3291 1056 2328 
Q 1056 1369 1301 889 
Q 1547 409 2034 409 
Q 2525 409 2770 889 
Q 3016 1369 3016 2328 
Q 3016 3291 2770 3770 
Q 2525 4250 2034 4250 
z
M 2034 4750 
Q 2819 4750 3233 4129 
Q 3647 3509 3647 2328 
Q 3647 1150 3233 529 
Q 2819 -91 2034 -91 
Q 1250 -91 836 529 
Q 422 1150 422 2328 
Q 422 3509 836 4129 
Q 1250 4750 2034 4750 
z
" transform="scale(0.015625)"/>
       </defs>
       <use xlink:href="#DejaVuSans-31"/>
       <use xlink:href="#DejaVuSans-30" x="63.623047"/>
      </g>
     </g>
    </g>
    <g id="xtick_2">
     <g id="text_2">
      <!-- 20 -->
      <g style="fill: #262626" transform="translate(156.946168 251.117937) scale(0.132 -0.132)">
       <defs>
        <path id="DejaVuSans-32" d="M 1228 531 
L 3431 531 
L 3431 0 
L 469 0 
L 469 531 
Q 828 903 1448 1529 
Q 2069 2156 2228 2338 
Q 2531 2678 2651 2914 
Q 2772 3150 2772 3378 
Q 2772 3750 2511 3984 
Q 2250 4219 1831 4219 
Q 1534 4219 1204 4116 
Q 875 4013 500 3803 
L 500 4441 
Q 881 4594 1212 4672 
Q 1544 4750 1819 4750 
Q 2544 4750 2975 4387 
Q 3406 4025 3406 3419 
Q 3406 3131 3298 2873 
Q 3191 2616 2906 2266 
Q 2828 2175 2409 1742 
Q 1991 1309 1228 531 
z
" transform="scale(0.015625)"/>
       </defs>
       <use xlink:href="#DejaVuSans-32"/>
       <use xlink:href="#DejaVuSans-30" x="63.623047"/>
      </g>
     </g>
    </g>
    <g id="xtick_3">
     <g id="text_3">
      <!-- 30 -->
      <g style="fill: #262626" transform="translate(219.104511 251.117937) scale(0.132 -0.132)">
       <defs>
        <path id="DejaVuSans-33" d="M 2597 2516 
Q 3050 2419 3304 2112 
Q 3559 1806 3559 1356 
Q 3559 666 3084 287 
Q 2609 -91 1734 -91 
Q 1441 -91 1130 -33 
Q 819 25 488 141 
L 488 750 
Q 750 597 1062 519 
Q 1375 441 1716 441 
Q 2309 441 2620 675 
Q 2931 909 2931 1356 
Q 2931 1769 2642 2001 
Q 2353 2234 1838 2234 
L 1294 2234 
L 1294 2753 
L 1863 2753 
Q 2328 2753 2575 2939 
Q 2822 3125 2822 3475 
Q 2822 3834 2567 4026 
Q 2313 4219 1838 4219 
Q 1578 4219 1281 4162 
Q 984 4106 628 3988 
L 628 4550 
Q 988 4650 1302 4700 
Q 1616 4750 1894 4750 
Q 2613 4750 3031 4423 
Q 3450 4097 3450 3541 
Q 3450 3153 3228 2886 
Q 3006 2619 2597 2516 
z
" transform="scale(0.015625)"/>
       </defs>
       <use xlink:href="#DejaVuSans-33"/>
       <use xlink:href="#DejaVuSans-30" x="63.623047"/>
      </g>
     </g>
    </g>
    <g id="xtick_4">
     <g id="text_4">
      <!-- 40 -->
      <g style="fill: #262626" transform="translate(281.262855 251.117937) scale(0.132 -0.132)">
       <defs>
        <path id="DejaVuSans-34" d="M 2419 4116 
L 825 1625 
L 2419 1625 
L 2419 4116 
z
M 2253 4666 
L 3047 4666 
L 3047 1625 
L 3713 1625 
L 3713 1100 
L 3047 1100 
L 3047 0 
L 2419 0 
L 2419 1100 
L 313 1100 
L 313 1709 
L 2253 4666 
z
" transform="scale(0.015625)"/>
       </defs>
       <use xlink:href="#DejaVuSans-34"/>
       <use xlink:href="#DejaVuSans-30" x="63.623047"/>
      </g>
     </g>
    </g>
    <g id="xtick_5">
     <g id="text_5">
      <!-- 60 -->
      <g style="fill: #262626" transform="translate(343.421198 251.117937) scale(0.132 -0.132)">
       <defs>
        <path id="DejaVuSans-36" d="M 2113 2584 
Q 1688 2584 1439 2293 
Q 1191 2003 1191 1497 
Q 1191 994 1439 701 
Q 1688 409 2113 409 
Q 2538 409 2786 701 
Q 3034 994 3034 1497 
Q 3034 2003 2786 2293 
Q 2538 2584 2113 2584 
z
M 3366 4563 
L 3366 3988 
Q 3128 4100 2886 4159 
Q 2644 4219 2406 4219 
Q 1781 4219 1451 3797 
Q 1122 3375 1075 2522 
Q 1259 2794 1537 2939 
Q 1816 3084 2150 3084 
Q 2853 3084 3261 2657 
Q 3669 2231 3669 1497 
Q 3669 778 3244 343 
Q 2819 -91 2113 -91 
Q 1303 -91 875 529 
Q 447 1150 447 2328 
Q 447 3434 972 4092 
Q 1497 4750 2381 4750 
Q 2619 4750 2861 4703 
Q 3103 4656 3366 4563 
z
" transform="scale(0.015625)"/>
       </defs>
       <use xlink:href="#DejaVuSans-36"/>
       <use xlink:href="#DejaVuSans-30" x="63.623047"/>
      </g>
     </g>
    </g>
    <g id="xtick_6">
     <g id="text_6">
      <!-- 80 -->
      <g style="fill: #262626" transform="translate(405.579542 251.117937) scale(0.132 -0.132)">
       <defs>
        <path id="DejaVuSans-38" d="M 2034 2216 
Q 1584 2216 1326 1975 
Q 1069 1734 1069 1313 
Q 1069 891 1326 650 
Q 1584 409 2034 409 
Q 2484 409 2743 651 
Q 3003 894 3003 1313 
Q 3003 1734 2745 1975 
Q 2488 2216 2034 2216 
z
M 1403 2484 
Q 997 2584 770 2862 
Q 544 3141 544 3541 
Q 544 4100 942 4425 
Q 1341 4750 2034 4750 
Q 2731 4750 3128 4425 
Q 3525 4100 3525 3541 
Q 3525 3141 3298 2862 
Q 3072 2584 2669 2484 
Q 3125 2378 3379 2068 
Q 3634 1759 3634 1313 
Q 3634 634 3220 271 
Q 2806 -91 2034 -91 
Q 1263 -91 848 271 
Q 434 634 434 1313 
Q 434 1759 690 2068 
Q 947 2378 1403 2484 
z
M 1172 3481 
Q 1172 3119 1398 2916 
Q 1625 2713 2034 2713 
Q 2441 2713 2670 2916 
Q 2900 3119 2900 3481 
Q 2900 3844 2670 4047 
Q 2441 4250 2034 4250 
Q 1625 4250 1398 4047 
Q 1172 3844 1172 3481 
z
" transform="scale(0.015625)"/>
       </defs>
       <use xlink:href="#DejaVuSans-38"/>
       <use xlink:href="#DejaVuSans-30" x="63.623047"/>
      </g>
     </g>
    </g>
    <g id="xtick_7">
     <g id="text_7">
      <!-- 100 -->
      <g style="fill: #262626" transform="translate(463.538635 251.117937) scale(0.132 -0.132)">
       <use xlink:href="#DejaVuSans-31"/>
       <use xlink:href="#DejaVuSans-30" x="63.623047"/>
       <use xlink:href="#DejaVuSans-30" x="127.246094"/>
      </g>
     </g>
    </g>
    <g id="xtick_8">
     <g id="text_8">
      <!-- 120 -->
      <g style="fill: #262626" transform="translate(525.696978 251.117937) scale(0.132 -0.132)">
       <use xlink:href="#DejaVuSans-31"/>
       <use xlink:href="#DejaVuSans-32" x="63.623047"/>
       <use xlink:href="#DejaVuSans-30" x="127.246094"/>
      </g>
     </g>
    </g>
    <g id="text_9">
     <!-- max_bodies -->
     <g style="fill: #262626" transform="translate(277.725026 268.804875) scale(0.144 -0.144)">
      <defs>
       <path id="DejaVuSans-6d" d="M 3328 2828 
Q 3544 3216 3844 3400 
Q 4144 3584 4550 3584 
Q 5097 3584 5394 3201 
Q 5691 2819 5691 2113 
L 5691 0 
L 5113 0 
L 5113 2094 
Q 5113 2597 4934 2840 
Q 4756 3084 4391 3084 
Q 3944 3084 3684 2787 
Q 3425 2491 3425 1978 
L 3425 0 
L 2847 0 
L 2847 2094 
Q 2847 2600 2669 2842 
Q 2491 3084 2119 3084 
Q 1678 3084 1418 2786 
Q 1159 2488 1159 1978 
L 1159 0 
L 581 0 
L 581 3500 
L 1159 3500 
L 1159 2956 
Q 1356 3278 1631 3431 
Q 1906 3584 2284 3584 
Q 2666 3584 2933 3390 
Q 3200 3197 3328 2828 
z
" transform="scale(0.015625)"/>
       <path id="DejaVuSans-61" d="M 2194 1759 
Q 1497 1759 1228 1600 
Q 959 1441 959 1056 
Q 959 750 1161 570 
Q 1363 391 1709 391 
Q 2188 391 2477 730 
Q 2766 1069 2766 1631 
L 2766 1759 
L 2194 1759 
z
M 3341 1997 
L 3341 0 
L 2766 0 
L 2766 531 
Q 2569 213 2275 61 
Q 1981 -91 1556 -91 
Q 1019 -91 701 211 
Q 384 513 384 1019 
Q 384 1609 779 1909 
Q 1175 2209 1959 2209 
L 2766 2209 
L 2766 2266 
Q 2766 2663 2505 2880 
Q 2244 3097 1772 3097 
Q 1472 3097 1187 3025 
Q 903 2953 641 2809 
L 641 3341 
Q 956 3463 1253 3523 
Q 1550 3584 1831 3584 
Q 2591 3584 2966 3190 
Q 3341 2797 3341 1997 
z
" transform="scale(0.015625)"/>
       <path id="DejaVuSans-78" d="M 3513 3500 
L 2247 1797 
L 3578 0 
L 2900 0 
L 1881 1375 
L 863 0 
L 184 0 
L 1544 1831 
L 300 3500 
L 978 3500 
L 1906 2253 
L 2834 3500 
L 3513 3500 
z
" transform="scale(0.015625)"/>
       <path id="DejaVuSans-5f" d="M 3263 -1063 
L 3263 -1509 
L -63 -1509 
L -63 -1063 
L 3263 -1063 
z
" transform="scale(0.015625)"/>
       <path id="DejaVuSans-62" d="M 3116 1747 
Q 3116 2381 2855 2742 
Q 2594 3103 2138 3103 
Q 1681 3103 1420 2742 
Q 1159 2381 1159 1747 
Q 1159 1113 1420 752 
Q 1681 391 2138 391 
Q 2594 391 2855 752 
Q 3116 1113 3116 1747 
z
M 1159 2969 
Q 1341 3281 1617 3432 
Q 1894 3584 2278 3584 
Q 2916 3584 3314 3078 
Q 3713 2572 3713 1747 
Q 3713 922 3314 415 
Q 2916 -91 2278 -91 
Q 1894 -91 1617 61 
Q 1341 213 1159 525 
L 1159 0 
L 581 0 
L 581 4863 
L 1159 4863 
L 1159 2969 
z
" transform="scale(0.015625)"/>
       <path id="DejaVuSans-6f" d="M 1959 3097 
Q 1497 3097 1228 2736 
Q 959 2375 959 1747 
Q 959 1119 1226 758 
Q 1494 397 1959 397 
Q 2419 397 2687 759 
Q 2956 1122 2956 1747 
Q 2956 2369 2687 2733 
Q 2419 3097 1959 3097 
z
M 1959 3584 
Q 2709 3584 3137 3096 
Q 3566 2609 3566 1747 
Q 3566 888 3137 398 
Q 2709 -91 1959 -91 
Q 1206 -91 779 398 
Q 353 888 353 1747 
Q 353 2609 779 3096 
Q 1206 3584 1959 3584 
z
" transform="scale(0.015625)"/>
       <path id="DejaVuSans-64" d="M 2906 2969 
L 2906 4863 
L 3481 4863 
L 3481 0 
L 2906 0 
L 2906 525 
Q 2725 213 2448 61 
Q 2172 -91 1784 -91 
Q 1150 -91 751 415 
Q 353 922 353 1747 
Q 353 2572 751 3078 
Q 1150 3584 1784 3584 
Q 2172 3584 2448 3432 
Q 2725 3281 2906 2969 
z
M 947 1747 
Q 947 1113 1208 752 
Q 1469 391 1925 391 
Q 2381 391 2643 752 
Q 2906 1113 2906 1747 
Q 2906 2381 2643 2742 
Q 2381 3103 1925 3103 
Q 1469 3103 1208 2742 
Q 947 2381 947 1747 
z
" transform="scale(0.015625)"/>
       <path id="DejaVuSans-69" d="M 603 3500 
L 1178 3500 
L 1178 0 
L 603 0 
L 603 3500 
z
M 603 4863 
L 1178 4863 
L 1178 4134 
L 603 4134 
L 603 4863 
z
" transform="scale(0.015625)"/>
       <path id="DejaVuSans-65" d="M 3597 1894 
L 3597 1613 
L 953 1613 
Q 991 1019 1311 708 
Q 1631 397 2203 397 
Q 2534 397 2845 478 
Q 3156 559 3463 722 
L 3463 178 
Q 3153 47 2828 -22 
Q 2503 -91 2169 -91 
Q 1331 -91 842 396 
Q 353 884 353 1716 
Q 353 2575 817 3079 
Q 1281 3584 2069 3584 
Q 2775 3584 3186 3129 
Q 3597 2675 3597 1894 
z
M 3022 2063 
Q 3016 2534 2758 2815 
Q 2500 3097 2075 3097 
Q 1594 3097 1305 2825 
Q 1016 2553 972 2059 
L 3022 2063 
z
" transform="scale(0.015625)"/>
       <path id="DejaVuSans-73" d="M 2834 3397 
L 2834 2853 
Q 2591 2978 2328 3040 
Q 2066 3103 1784 3103 
Q 1356 3103 1142 2972 
Q 928 2841 928 2578 
Q 928 2378 1081 2264 
Q 1234 2150 1697 2047 
L 1894 2003 
Q 2506 1872 2764 1633 
Q 3022 1394 3022 966 
Q 3022 478 2636 193 
Q 2250 -91 1575 -91 
Q 1294 -91 989 -36 
Q 684 19 347 128 
L 347 722 
Q 666 556 975 473 
Q 1284 391 1588 391 
Q 1994 391 2212 530 
Q 2431 669 2431 922 
Q 2431 1156 2273 1281 
Q 2116 1406 1581 1522 
L 1381 1569 
Q 847 1681 609 1914 
Q 372 2147 372 2553 
Q 372 3047 722 3315 
Q 1072 3584 1716 3584 
Q 2034 3584 2315 3537 
Q 2597 3491 2834 3397 
z
" transform="scale(0.015625)"/>
      </defs>
      <use xlink:href="#DejaVuSans-6d"/>
      <use xlink:href="#DejaVuSans-61" x="97.412109"/>
      <use xlink:href="#DejaVuSans-78" x="158.691406"/>
      <use xlink:href="#DejaVuSans-5f" x="217.871094"/>
      <use xlink:href="#DejaVuSans-62" x="267.871094"/>
      <use xlink:href="#DejaVuSans-6f" x="331.347656"/>
      <use xlink:href="#DejaVuSans-64" x="392.529297"/>
      <use xlink:href="#DejaVuSans-69" x="456.005859"/>
      <use xlink:href="#DejaVuSans-65" x="483.789062"/>
      <use xlink:href="#DejaVuSans-73" x="545.3125"/>
     </g>
    </g>
   </g>
   <g id="matplotlib.axis_2">
    <g id="ytick_1">
     <g id="line2d_1">
      <path d="M 72.107153 222.032141 
L 569.3739 222.032141 
" clip-path="url(#p0af42f1864)" style="fill: none; stroke: #cccccc; stroke-width: 0.8; stroke-linecap: round"/>
     </g>
     <g id="text_10">
      <!-- $\mathdefault{10^{-2}}$ -->
      <g style="fill: #262626" transform="translate(32.787153 227.04711) scale(0.132 -0.132)">
       <defs>
        <path id="DejaVuSans-2212" d="M 678 2272 
L 4684 2272 
L 4684 1741 
L 678 1741 
L 678 2272 
z
" transform="scale(0.015625)"/>
       </defs>
       <use xlink:href="#DejaVuSans-31" transform="translate(0 0.765625)"/>
       <use xlink:href="#DejaVuSans-30" transform="translate(63.623047 0.765625)"/>
       <use xlink:href="#DejaVuSans-2212" transform="translate(128.203125 39.046875) scale(0.7)"/>
       <use xlink:href="#DejaVuSans-32" transform="translate(186.855469 39.046875) scale(0.7)"/>
      </g>
     </g>
    </g>
    <g id="ytick_2">
     <g id="line2d_2">
      <path d="M 72.107153 141.262583 
L 569.3739 141.262583 
" clip-path="url(#p0af42f1864)" style="fill: none; stroke: #cccccc; stroke-width: 0.8; stroke-linecap: round"/>
     </g>
     <g id="text_11">
      <!-- $\mathdefault{10^{-1}}$ -->
      <g style="fill: #262626" transform="translate(32.787153 146.277552) scale(0.132 -0.132)">
       <use xlink:href="#DejaVuSans-31" transform="translate(0 0.684375)"/>
       <use xlink:href="#DejaVuSans-30" transform="translate(63.623047 0.684375)"/>
       <use xlink:href="#DejaVuSans-2212" transform="translate(128.203125 38.965625) scale(0.7)"/>
       <use xlink:href="#DejaVuSans-31" transform="translate(186.855469 38.965625) scale(0.7)"/>
      </g>
     </g>
    </g>
    <g id="ytick_3">
     <g id="line2d_3">
      <path d="M 72.107153 60.493024 
L 569.3739 60.493024 
" clip-path="url(#p0af42f1864)" style="fill: none; stroke: #cccccc; stroke-width: 0.8; stroke-linecap: round"/>
     </g>
     <g id="text_12">
      <!-- $\mathdefault{10^{0}}$ -->
      <g style="fill: #262626" transform="translate(40.575153 65.507993) scale(0.132 -0.132)">
       <use xlink:href="#DejaVuSans-31" transform="translate(0 0.765625)"/>
       <use xlink:href="#DejaVuSans-30" transform="translate(63.623047 0.765625)"/>
       <use xlink:href="#DejaVuSans-30" transform="translate(128.203125 39.046875) scale(0.7)"/>
      </g>
     </g>
    </g>
    <g id="ytick_4"/>
    <g id="ytick_5"/>
    <g id="ytick_6"/>
    <g id="ytick_7"/>
    <g id="ytick_8"/>
    <g id="ytick_9"/>
    <g id="ytick_10"/>
    <g id="ytick_11"/>
    <g id="ytick_12"/>
    <g id="ytick_13"/>
    <g id="ytick_14"/>
    <g id="ytick_15"/>
    <g id="ytick_16"/>
    <g id="ytick_17"/>
    <g id="ytick_18"/>
    <g id="ytick_19"/>
    <g id="ytick_20"/>
    <g id="ytick_21"/>
    <g id="ytick_22"/>
    <g id="ytick_23"/>
    <g id="text_13">
     <!-- time -->
     <g style="fill: #262626" transform="translate(25.792403 140.436375) rotate(-90) scale(0.144 -0.144)">
      <defs>
       <path id="DejaVuSans-74" d="M 1172 4494 
L 1172 3500 
L 2356 3500 
L 2356 3053 
L 1172 3053 
L 1172 1153 
Q 1172 725 1289 603 
Q 1406 481 1766 481 
L 2356 481 
L 2356 0 
L 1766 0 
Q 1100 0 847 248 
Q 594 497 594 1153 
L 594 3053 
L 172 3053 
L 172 3500 
L 594 3500 
L 594 4494 
L 1172 4494 
z
" transform="scale(0.015625)"/>
      </defs>
      <use xlink:href="#DejaVuSans-74"/>
      <use xlink:href="#DejaVuSans-69" x="39.208984"/>
      <use xlink:href="#DejaVuSans-6d" x="66.992188"/>
      <use xlink:href="#DejaVuSans-65" x="164.404297"/>
     </g>
    </g>
   </g>
   <g id="patch_3">
    <path d="M 78.322987 80830.051623 
L 84.538821 80830.051623 
L 84.538821 219.967418 
L 78.322987 219.967418 
z
" clip-path="url(#p0af42f1864)" style="fill: #597dbf; stroke: #ffffff; stroke-width: 0.8; stroke-linejoin: miter"/>
   </g>
   <g id="patch_4">
    <path d="M 140.481331 80830.051623 
L 146.697165 80830.051623 
L 146.697165 203.13969 
L 140.481331 203.13969 
z
" clip-path="url(#p0af42f1864)" style="fill: #597dbf; stroke: #ffffff; stroke-width: 0.8; stroke-linejoin: miter"/>
   </g>
   <g id="patch_5">
    <path d="M 202.639674 80830.051623 
L 208.855508 80830.051623 
L 208.855508 142.361745 
L 202.639674 142.361745 
z
" clip-path="url(#p0af42f1864)" style="fill: #597dbf; stroke: #ffffff; stroke-width: 0.8; stroke-linejoin: miter"/>
   </g>
   <g id="patch_6">
    <path d="M 264.798017 80830.051623 
L 271.013852 80830.051623 
L 271.013852 140.47722 
L 264.798017 140.47722 
z
" clip-path="url(#p0af42f1864)" style="fill: #597dbf; stroke: #ffffff; stroke-width: 0.8; stroke-linejoin: miter"/>
   </g>
   <g id="patch_7">
    <path d="M 326.956361 80830.051623 
L 333.172195 80830.051623 
L 333.172195 138.363309 
L 326.956361 138.363309 
z
" clip-path="url(#p0af42f1864)" style="fill: #597dbf; stroke: #ffffff; stroke-width: 0.8; stroke-linejoin: miter"/>
   </g>
   <g id="patch_8">
    <path d="M 389.114704 80830.051623 
L 395.330538 80830.051623 
L 395.330538 123.695001 
L 389.114704 123.695001 
z
" clip-path="url(#p0af42f1864)" style="fill: #597dbf; stroke: #ffffff; stroke-width: 0.8; stroke-linejoin: miter"/>
   </g>
   <g id="patch_9">
    <path d="M 451.273048 80830.051623 
L 457.488882 80830.051623 
L 457.488882 117.760791 
L 451.273048 117.760791 
z
" clip-path="url(#p0af42f1864)" style="fill: #597dbf; stroke: #ffffff; stroke-width: 0.8; stroke-linejoin: miter"/>
   </g>
   <g id="patch_10">
    <path d="M 513.431391 80830.051623 
L 519.647225 80830.051623 
L 519.647225 121.883197 
L 513.431391 121.883197 
z
" clip-path="url(#p0af42f1864)" style="fill: #597dbf; stroke: #ffffff; stroke-width: 0.8; stroke-linejoin: miter"/>
   </g>
   <g id="patch_11">
    <path d="M 84.538821 80830.051623 
L 90.754656 80830.051623 
L 90.754656 198.56957 
L 84.538821 198.56957 
z
" clip-path="url(#p0af42f1864)" style="fill: #d98b5f; stroke: #ffffff; stroke-width: 0.8; stroke-linejoin: miter"/>
   </g>
   <g id="patch_12">
    <path d="M 146.697165 80830.051623 
L 152.912999 80830.051623 
L 152.912999 184.533335 
L 146.697165 184.533335 
z
" clip-path="url(#p0af42f1864)" style="fill: #d98b5f; stroke: #ffffff; stroke-width: 0.8; stroke-linejoin: miter"/>
   </g>
   <g id="patch_13">
    <path d="M 208.855508 80830.051623 
L 215.071343 80830.051623 
L 215.071343 141.989937 
L 208.855508 141.989937 
z
" clip-path="url(#p0af42f1864)" style="fill: #d98b5f; stroke: #ffffff; stroke-width: 0.8; stroke-linejoin: miter"/>
   </g>
   <g id="patch_14">
    <path d="M 271.013852 80830.051623 
L 277.229686 80830.051623 
L 277.229686 140.036772 
L 271.013852 140.036772 
z
" clip-path="url(#p0af42f1864)" style="fill: #d98b5f; stroke: #ffffff; stroke-width: 0.8; stroke-linejoin: miter"/>
   </g>
   <g id="patch_15">
    <path d="M 333.172195 80830.051623 
L 339.388029 80830.051623 
L 339.388029 130.956193 
L 333.172195 130.956193 
z
" clip-path="url(#p0af42f1864)" style="fill: #d98b5f; stroke: #ffffff; stroke-width: 0.8; stroke-linejoin: miter"/>
   </g>
   <g id="patch_16">
    <path d="M 395.330538 80830.051623 
L 401.546373 80830.051623 
L 401.546373 119.797335 
L 395.330538 119.797335 
z
" clip-path="url(#p0af42f1864)" style="fill: #d98b5f; stroke: #ffffff; stroke-width: 0.8; stroke-linejoin: miter"/>
   </g>
   <g id="patch_17">
    <path d="M 457.488882 80830.051623 
L 463.704716 80830.051623 
L 463.704716 109.115297 
L 457.488882 109.115297 
z
" clip-path="url(#p0af42f1864)" style="fill: #d98b5f; stroke: #ffffff; stroke-width: 0.8; stroke-linejoin: miter"/>
   </g>
   <g id="patch_18">
    <path d="M 519.647225 80830.051623 
L 525.86306 80830.051623 
L 525.86306 114.829739 
L 519.647225 114.829739 
z
" clip-path="url(#p0af42f1864)" style="fill: #d98b5f; stroke: #ffffff; stroke-width: 0.8; stroke-linejoin: miter"/>
   </g>
   <g id="patch_19">
    <path d="M 90.754656 80830.051623 
L 96.97049 80830.051623 
L 96.97049 195.279188 
L 90.754656 195.279188 
z
" clip-path="url(#p0af42f1864)" style="fill: #75bf71; stroke: #ffffff; stroke-width: 0.8; stroke-linejoin: miter"/>
   </g>
   <g id="patch_20">
    <path d="M 152.912999 80830.051623 
L 159.128834 80830.051623 
L 159.128834 177.645811 
L 152.912999 177.645811 
z
" clip-path="url(#p0af42f1864)" style="fill: #75bf71; stroke: #ffffff; stroke-width: 0.8; stroke-linejoin: miter"/>
   </g>
   <g id="patch_21">
    <path d="M 215.071343 80830.051623 
L 221.287177 80830.051623 
L 221.287177 139.221508 
L 215.071343 139.221508 
z
" clip-path="url(#p0af42f1864)" style="fill: #75bf71; stroke: #ffffff; stroke-width: 0.8; stroke-linejoin: miter"/>
   </g>
   <g id="patch_22">
    <path d="M 277.229686 80830.051623 
L 283.44552 80830.051623 
L 283.44552 131.669875 
L 277.229686 131.669875 
z
" clip-path="url(#p0af42f1864)" style="fill: #75bf71; stroke: #ffffff; stroke-width: 0.8; stroke-linejoin: miter"/>
   </g>
   <g id="patch_23">
    <path d="M 339.388029 80830.051623 
L 345.603864 80830.051623 
L 345.603864 125.552461 
L 339.388029 125.552461 
z
" clip-path="url(#p0af42f1864)" style="fill: #75bf71; stroke: #ffffff; stroke-width: 0.8; stroke-linejoin: miter"/>
   </g>
   <g id="patch_24">
    <path d="M 401.546373 80830.051623 
L 407.762207 80830.051623 
L 407.762207 114.726901 
L 401.546373 114.726901 
z
" clip-path="url(#p0af42f1864)" style="fill: #75bf71; stroke: #ffffff; stroke-width: 0.8; stroke-linejoin: miter"/>
   </g>
   <g id="patch_25">
    <path d="M 463.704716 80830.051623 
L 469.920551 80830.051623 
L 469.920551 101.272748 
L 463.704716 101.272748 
z
" clip-path="url(#p0af42f1864)" style="fill: #75bf71; stroke: #ffffff; stroke-width: 0.8; stroke-linejoin: miter"/>
   </g>
   <g id="patch_26">
    <path d="M 525.86306 80830.051623 
L 532.078894 80830.051623 
L 532.078894 108.725 
L 525.86306 108.725 
z
" clip-path="url(#p0af42f1864)" style="fill: #75bf71; stroke: #ffffff; stroke-width: 0.8; stroke-linejoin: miter"/>
   </g>
   <g id="patch_27">
    <path d="M 96.97049 80830.051623 
L 103.186325 80830.051623 
L 103.186325 186.995403 
L 96.97049 186.995403 
z
" clip-path="url(#p0af42f1864)" style="fill: #c76e6e; stroke: #ffffff; stroke-width: 0.8; stroke-linejoin: miter"/>
   </g>
   <g id="patch_28">
    <path d="M 159.128834 80830.051623 
L 165.344668 80830.051623 
L 165.344668 169.122151 
L 159.128834 169.122151 
z
" clip-path="url(#p0af42f1864)" style="fill: #c76e6e; stroke: #ffffff; stroke-width: 0.8; stroke-linejoin: miter"/>
   </g>
   <g id="patch_29">
    <path d="M 221.287177 80830.051623 
L 227.503011 80830.051623 
L 227.503011 132.553598 
L 221.287177 132.553598 
z
" clip-path="url(#p0af42f1864)" style="fill: #c76e6e; stroke: #ffffff; stroke-width: 0.8; stroke-linejoin: miter"/>
   </g>
   <g id="patch_30">
    <path d="M 283.44552 80830.051623 
L 289.661355 80830.051623 
L 289.661355 126.627157 
L 283.44552 126.627157 
z
" clip-path="url(#p0af42f1864)" style="fill: #c76e6e; stroke: #ffffff; stroke-width: 0.8; stroke-linejoin: miter"/>
   </g>
   <g id="patch_31">
    <path d="M 345.603864 80830.051623 
L 351.819698 80830.051623 
L 351.819698 118.872226 
L 345.603864 118.872226 
z
" clip-path="url(#p0af42f1864)" style="fill: #c76e6e; stroke: #ffffff; stroke-width: 0.8; stroke-linejoin: miter"/>
   </g>
   <g id="patch_32">
    <path d="M 407.762207 80830.051623 
L 413.978042 80830.051623 
L 413.978042 106.706286 
L 407.762207 106.706286 
z
" clip-path="url(#p0af42f1864)" style="fill: #c76e6e; stroke: #ffffff; stroke-width: 0.8; stroke-linejoin: miter"/>
   </g>
   <g id="patch_33">
    <path d="M 469.920551 80830.051623 
L 476.136385 80830.051623 
L 476.136385 94.717877 
L 469.920551 94.717877 
z
" clip-path="url(#p0af42f1864)" style="fill: #c76e6e; stroke: #ffffff; stroke-width: 0.8; stroke-linejoin: miter"/>
   </g>
   <g id="patch_34">
    <path d="M 532.078894 80830.051623 
L 538.294728 80830.051623 
L 538.294728 99.337393 
L 532.078894 99.337393 
z
" clip-path="url(#p0af42f1864)" style="fill: #c76e6e; stroke: #ffffff; stroke-width: 0.8; stroke-linejoin: miter"/>
   </g>
   <g id="patch_35">
    <path d="M 103.186325 80830.051623 
L 109.402159 80830.051623 
L 109.402159 174.091779 
L 103.186325 174.091779 
z
" clip-path="url(#p0af42f1864)" style="fill: #9475ab; stroke: #ffffff; stroke-width: 0.8; stroke-linejoin: miter"/>
   </g>
   <g id="patch_36">
    <path d="M 165.344668 80830.051623 
L 171.560502 80830.051623 
L 171.560502 160.27551 
L 165.344668 160.27551 
z
" clip-path="url(#p0af42f1864)" style="fill: #9475ab; stroke: #ffffff; stroke-width: 0.8; stroke-linejoin: miter"/>
   </g>
   <g id="patch_37">
    <path d="M 227.503011 80830.051623 
L 233.718846 80830.051623 
L 233.718846 124.336513 
L 227.503011 124.336513 
z
" clip-path="url(#p0af42f1864)" style="fill: #9475ab; stroke: #ffffff; stroke-width: 0.8; stroke-linejoin: miter"/>
   </g>
   <g id="patch_38">
    <path d="M 289.661355 80830.051623 
L 295.877189 80830.051623 
L 295.877189 117.374153 
L 289.661355 117.374153 
z
" clip-path="url(#p0af42f1864)" style="fill: #9475ab; stroke: #ffffff; stroke-width: 0.8; stroke-linejoin: miter"/>
   </g>
   <g id="patch_39">
    <path d="M 351.819698 80830.051623 
L 358.035532 80830.051623 
L 358.035532 108.644111 
L 351.819698 108.644111 
z
" clip-path="url(#p0af42f1864)" style="fill: #9475ab; stroke: #ffffff; stroke-width: 0.8; stroke-linejoin: miter"/>
   </g>
   <g id="patch_40">
    <path d="M 413.978042 80830.051623 
L 420.193876 80830.051623 
L 420.193876 93.708458 
L 413.978042 93.708458 
z
" clip-path="url(#p0af42f1864)" style="fill: #9475ab; stroke: #ffffff; stroke-width: 0.8; stroke-linejoin: miter"/>
   </g>
   <g id="patch_41">
    <path d="M 476.136385 80830.051623 
L 482.352219 80830.051623 
L 482.352219 83.284776 
L 476.136385 83.284776 
z
" clip-path="url(#p0af42f1864)" style="fill: #9475ab; stroke: #ffffff; stroke-width: 0.8; stroke-linejoin: miter"/>
   </g>
   <g id="patch_42">
    <path d="M 538.294728 80830.051623 
L 544.510563 80830.051623 
L 544.510563 85.280809 
L 538.294728 85.280809 
z
" clip-path="url(#p0af42f1864)" style="fill: #9475ab; stroke: #ffffff; stroke-width: 0.8; stroke-linejoin: miter"/>
   </g>
   <g id="patch_43">
    <path d="M 109.402159 80830.051623 
L 115.617993 80830.051623 
L 115.617993 156.267932 
L 109.402159 156.267932 
z
" clip-path="url(#p0af42f1864)" style="fill: #826246; stroke: #ffffff; stroke-width: 0.8; stroke-linejoin: miter"/>
   </g>
   <g id="patch_44">
    <path d="M 171.560502 80830.051623 
L 177.776337 80830.051623 
L 177.776337 145.145437 
L 171.560502 145.145437 
z
" clip-path="url(#p0af42f1864)" style="fill: #826246; stroke: #ffffff; stroke-width: 0.8; stroke-linejoin: miter"/>
   </g>
   <g id="patch_45">
    <path d="M 233.718846 80830.051623 
L 239.93468 80830.051623 
L 239.93468 118.855484 
L 233.718846 118.855484 
z
" clip-path="url(#p0af42f1864)" style="fill: #826246; stroke: #ffffff; stroke-width: 0.8; stroke-linejoin: miter"/>
   </g>
   <g id="patch_46">
    <path d="M 295.877189 80830.051623 
L 302.093023 80830.051623 
L 302.093023 109.740922 
L 295.877189 109.740922 
z
" clip-path="url(#p0af42f1864)" style="fill: #826246; stroke: #ffffff; stroke-width: 0.8; stroke-linejoin: miter"/>
   </g>
   <g id="patch_47">
    <path d="M 358.035532 80830.051623 
L 364.251367 80830.051623 
L 364.251367 97.52187 
L 358.035532 97.52187 
z
" clip-path="url(#p0af42f1864)" style="fill: #826246; stroke: #ffffff; stroke-width: 0.8; stroke-linejoin: miter"/>
   </g>
   <g id="patch_48">
    <path d="M 420.193876 80830.051623 
L 426.40971 80830.051623 
L 426.40971 80.409688 
L 420.193876 80.409688 
z
" clip-path="url(#p0af42f1864)" style="fill: #826246; stroke: #ffffff; stroke-width: 0.8; stroke-linejoin: miter"/>
   </g>
   <g id="patch_49">
    <path d="M 482.352219 80830.051623 
L 488.568054 80830.051623 
L 488.568054 69.179209 
L 482.352219 69.179209 
z
" clip-path="url(#p0af42f1864)" style="fill: #826246; stroke: #ffffff; stroke-width: 0.8; stroke-linejoin: miter"/>
   </g>
   <g id="patch_50">
    <path d="M 544.510563 80830.051623 
L 550.726397 80830.051623 
L 550.726397 69.203488 
L 544.510563 69.203488 
z
" clip-path="url(#p0af42f1864)" style="fill: #826246; stroke: #ffffff; stroke-width: 0.8; stroke-linejoin: miter"/>
   </g>
   <g id="patch_51">
    <path d="M 115.617993 80830.051623 
L 121.833828 80830.051623 
L 121.833828 135.714616 
L 115.617993 135.714616 
z
" clip-path="url(#p0af42f1864)" style="fill: #d08abb; stroke: #ffffff; stroke-width: 0.8; stroke-linejoin: miter"/>
   </g>
   <g id="patch_52">
    <path d="M 177.776337 80830.051623 
L 183.992171 80830.051623 
L 183.992171 124.596218 
L 177.776337 124.596218 
z
" clip-path="url(#p0af42f1864)" style="fill: #d08abb; stroke: #ffffff; stroke-width: 0.8; stroke-linejoin: miter"/>
   </g>
   <g id="patch_53">
    <path d="M 239.93468 80830.051623 
L 246.150514 80830.051623 
L 246.150514 105.663645 
L 239.93468 105.663645 
z
" clip-path="url(#p0af42f1864)" style="fill: #d08abb; stroke: #ffffff; stroke-width: 0.8; stroke-linejoin: miter"/>
   </g>
   <g id="patch_54">
    <path d="M 302.093023 80830.051623 
L 308.308858 80830.051623 
L 308.308858 92.200302 
L 302.093023 92.200302 
z
" clip-path="url(#p0af42f1864)" style="fill: #d08abb; stroke: #ffffff; stroke-width: 0.8; stroke-linejoin: miter"/>
   </g>
   <g id="patch_55">
    <path d="M 364.251367 80830.051623 
L 370.467201 80830.051623 
L 370.467201 78.164014 
L 364.251367 78.164014 
z
" clip-path="url(#p0af42f1864)" style="fill: #d08abb; stroke: #ffffff; stroke-width: 0.8; stroke-linejoin: miter"/>
   </g>
   <g id="patch_56">
    <path d="M 426.40971 80830.051623 
L 432.625545 80830.051623 
L 432.625545 60.607474 
L 426.40971 60.607474 
z
" clip-path="url(#p0af42f1864)" style="fill: #d08abb; stroke: #ffffff; stroke-width: 0.8; stroke-linejoin: miter"/>
   </g>
   <g id="patch_57">
    <path d="M 488.568054 80830.051623 
L 494.783888 80830.051623 
L 494.783888 48.39513 
L 488.568054 48.39513 
z
" clip-path="url(#p0af42f1864)" style="fill: #d08abb; stroke: #ffffff; stroke-width: 0.8; stroke-linejoin: miter"/>
   </g>
   <g id="patch_58">
    <path d="M 550.726397 80830.051623 
L 556.942231 80830.051623 
L 556.942231 48.429502 
L 550.726397 48.429502 
z
" clip-path="url(#p0af42f1864)" style="fill: #d08abb; stroke: #ffffff; stroke-width: 0.8; stroke-linejoin: miter"/>
   </g>
   <g id="patch_59">
    <path d="M 121.833828 80830.051623 
L 128.049662 80830.051623 
L 128.049662 114.235063 
L 121.833828 114.235063 
z
" clip-path="url(#p0af42f1864)" style="fill: #797979; stroke: #ffffff; stroke-width: 0.8; stroke-linejoin: miter"/>
   </g>
   <g id="patch_60">
    <path d="M 183.992171 80830.051623 
L 190.208005 80830.051623 
L 190.208005 103.19174 
L 183.992171 103.19174 
z
" clip-path="url(#p0af42f1864)" style="fill: #797979; stroke: #ffffff; stroke-width: 0.8; stroke-linejoin: miter"/>
   </g>
   <g id="patch_61">
    <path d="M 246.150514 80830.051623 
L 252.366349 80830.051623 
L 252.366349 85.03234 
L 246.150514 85.03234 
z
" clip-path="url(#p0af42f1864)" style="fill: #797979; stroke: #ffffff; stroke-width: 0.8; stroke-linejoin: miter"/>
   </g>
   <g id="patch_62">
    <path d="M 308.308858 80830.051623 
L 314.524692 80830.051623 
L 314.524692 73.20819 
L 308.308858 73.20819 
z
" clip-path="url(#p0af42f1864)" style="fill: #797979; stroke: #ffffff; stroke-width: 0.8; stroke-linejoin: miter"/>
   </g>
   <g id="patch_63">
    <path d="M 370.467201 80830.051623 
L 376.683035 80830.051623 
L 376.683035 56.998802 
L 370.467201 56.998802 
z
" clip-path="url(#p0af42f1864)" style="fill: #797979; stroke: #ffffff; stroke-width: 0.8; stroke-linejoin: miter"/>
   </g>
   <g id="patch_64">
    <path d="M 432.625545 80830.051623 
L 438.841379 80830.051623 
L 438.841379 39.165584 
L 432.625545 39.165584 
z
" clip-path="url(#p0af42f1864)" style="fill: #797979; stroke: #ffffff; stroke-width: 0.8; stroke-linejoin: miter"/>
   </g>
   <g id="patch_65">
    <path d="M 494.783888 80830.051623 
L 500.999722 80830.051623 
L 500.999722 26.873362 
L 494.783888 26.873362 
z
" clip-path="url(#p0af42f1864)" style="fill: #797979; stroke: #ffffff; stroke-width: 0.8; stroke-linejoin: miter"/>
   </g>
   <g id="patch_66">
    <path d="M 556.942231 80830.051623 
L 563.158066 80830.051623 
L 563.158066 26.57081 
L 556.942231 26.57081 
z
" clip-path="url(#p0af42f1864)" style="fill: #797979; stroke: #ffffff; stroke-width: 0.8; stroke-linejoin: miter"/>
   </g>
   <g id="patch_67">
    <path d="M 103.186325 80830.051623 
L 103.186325 80830.051623 
L 103.186325 80830.051623 
L 103.186325 80830.051623 
z
" clip-path="url(#p0af42f1864)" style="fill: #597dbf; stroke: #ffffff; stroke-width: 0.8; stroke-linejoin: miter"/>
   </g>
   <g id="patch_68">
    <path d="M 103.186325 80830.051623 
L 103.186325 80830.051623 
L 103.186325 80830.051623 
L 103.186325 80830.051623 
z
" clip-path="url(#p0af42f1864)" style="fill: #d98b5f; stroke: #ffffff; stroke-width: 0.8; stroke-linejoin: miter"/>
   </g>
   <g id="patch_69">
    <path d="M 103.186325 80830.051623 
L 103.186325 80830.051623 
L 103.186325 80830.051623 
L 103.186325 80830.051623 
z
" clip-path="url(#p0af42f1864)" style="fill: #75bf71; stroke: #ffffff; stroke-width: 0.8; stroke-linejoin: miter"/>
   </g>
   <g id="patch_70">
    <path d="M 103.186325 80830.051623 
L 103.186325 80830.051623 
L 103.186325 80830.051623 
L 103.186325 80830.051623 
z
" clip-path="url(#p0af42f1864)" style="fill: #c76e6e; stroke: #ffffff; stroke-width: 0.8; stroke-linejoin: miter"/>
   </g>
   <g id="patch_71">
    <path d="M 103.186325 80830.051623 
L 103.186325 80830.051623 
L 103.186325 80830.051623 
L 103.186325 80830.051623 
z
" clip-path="url(#p0af42f1864)" style="fill: #9475ab; stroke: #ffffff; stroke-width: 0.8; stroke-linejoin: miter"/>
   </g>
   <g id="patch_72">
    <path d="M 103.186325 80830.051623 
L 103.186325 80830.051623 
L 103.186325 80830.051623 
L 103.186325 80830.051623 
z
" clip-path="url(#p0af42f1864)" style="fill: #826246; stroke: #ffffff; stroke-width: 0.8; stroke-linejoin: miter"/>
   </g>
   <g id="patch_73">
    <path d="M 103.186325 80830.051623 
L 103.186325 80830.051623 
L 103.186325 80830.051623 
L 103.186325 80830.051623 
z
" clip-path="url(#p0af42f1864)" style="fill: #d08abb; stroke: #ffffff; stroke-width: 0.8; stroke-linejoin: miter"/>
   </g>
   <g id="patch_74">
    <path d="M 103.186325 80830.051623 
L 103.186325 80830.051623 
L 103.186325 80830.051623 
L 103.186325 80830.051623 
z
" clip-path="url(#p0af42f1864)" style="fill: #797979; stroke: #ffffff; stroke-width: 0.8; stroke-linejoin: miter"/>
   </g>
   <g id="line2d_4">
    <path d="M 81.430904 222.913636 
L 81.430904 215.564806 
" clip-path="url(#p0af42f1864)" style="fill: none; stroke: #424242; stroke-width: 1.8; stroke-linecap: round"/>
   </g>
   <g id="line2d_5">
    <path d="M 143.589248 204.003428 
L 143.589248 202.020462 
" clip-path="url(#p0af42f1864)" style="fill: none; stroke: #424242; stroke-width: 1.8; stroke-linecap: round"/>
   </g>
   <g id="line2d_6">
    <path d="M 205.747591 143.197452 
L 205.747591 141.539115 
" clip-path="url(#p0af42f1864)" style="fill: none; stroke: #424242; stroke-width: 1.8; stroke-linecap: round"/>
   </g>
   <g id="line2d_7">
    <path d="M 267.905935 141.502544 
L 267.905935 139.343 
" clip-path="url(#p0af42f1864)" style="fill: none; stroke: #424242; stroke-width: 1.8; stroke-linecap: round"/>
   </g>
   <g id="line2d_8">
    <path d="M 330.064278 139.481301 
L 330.064278 136.608414 
" clip-path="url(#p0af42f1864)" style="fill: none; stroke: #424242; stroke-width: 1.8; stroke-linecap: round"/>
   </g>
   <g id="line2d_9">
    <path d="M 392.222621 126.181389 
L 392.222621 120.807489 
" clip-path="url(#p0af42f1864)" style="fill: none; stroke: #424242; stroke-width: 1.8; stroke-linecap: round"/>
   </g>
   <g id="line2d_10">
    <path d="M 454.380965 119.936053 
L 454.380965 114.957678 
" clip-path="url(#p0af42f1864)" style="fill: none; stroke: #424242; stroke-width: 1.8; stroke-linecap: round"/>
   </g>
   <g id="line2d_11">
    <path d="M 516.539308 124.658014 
L 516.539308 117.026965 
" clip-path="url(#p0af42f1864)" style="fill: none; stroke: #424242; stroke-width: 1.8; stroke-linecap: round"/>
   </g>
   <g id="line2d_12">
    <path d="M 87.646739 199.826464 
L 87.646739 197.278507 
" clip-path="url(#p0af42f1864)" style="fill: none; stroke: #424242; stroke-width: 1.8; stroke-linecap: round"/>
   </g>
   <g id="line2d_13">
    <path d="M 149.805082 185.433053 
L 149.805082 183.669689 
" clip-path="url(#p0af42f1864)" style="fill: none; stroke: #424242; stroke-width: 1.8; stroke-linecap: round"/>
   </g>
   <g id="line2d_14">
    <path d="M 211.963425 142.616231 
L 211.963425 141.328008 
" clip-path="url(#p0af42f1864)" style="fill: none; stroke: #424242; stroke-width: 1.8; stroke-linecap: round"/>
   </g>
   <g id="line2d_15">
    <path d="M 274.121769 141.109739 
L 274.121769 138.697348 
" clip-path="url(#p0af42f1864)" style="fill: none; stroke: #424242; stroke-width: 1.8; stroke-linecap: round"/>
   </g>
   <g id="line2d_16">
    <path d="M 336.280112 131.873307 
L 336.280112 129.687751 
" clip-path="url(#p0af42f1864)" style="fill: none; stroke: #424242; stroke-width: 1.8; stroke-linecap: round"/>
   </g>
   <g id="line2d_17">
    <path d="M 398.438456 121.020146 
L 398.438456 117.899849 
" clip-path="url(#p0af42f1864)" style="fill: none; stroke: #424242; stroke-width: 1.8; stroke-linecap: round"/>
   </g>
   <g id="line2d_18">
    <path d="M 460.596799 110.750571 
L 460.596799 106.747088 
" clip-path="url(#p0af42f1864)" style="fill: none; stroke: #424242; stroke-width: 1.8; stroke-linecap: round"/>
   </g>
   <g id="line2d_19">
    <path d="M 522.755142 117.118435 
L 522.755142 110.996305 
" clip-path="url(#p0af42f1864)" style="fill: none; stroke: #424242; stroke-width: 1.8; stroke-linecap: round"/>
   </g>
   <g id="line2d_20">
    <path d="M 93.862573 196.106125 
L 93.862573 194.410795 
" clip-path="url(#p0af42f1864)" style="fill: none; stroke: #424242; stroke-width: 1.8; stroke-linecap: round"/>
   </g>
   <g id="line2d_21">
    <path d="M 156.020916 178.506822 
L 156.020916 176.563128 
" clip-path="url(#p0af42f1864)" style="fill: none; stroke: #424242; stroke-width: 1.8; stroke-linecap: round"/>
   </g>
   <g id="line2d_22">
    <path d="M 218.17926 140.611972 
L 218.17926 137.670469 
" clip-path="url(#p0af42f1864)" style="fill: none; stroke: #424242; stroke-width: 1.8; stroke-linecap: round"/>
   </g>
   <g id="line2d_23">
    <path d="M 280.337603 132.474421 
L 280.337603 130.763273 
" clip-path="url(#p0af42f1864)" style="fill: none; stroke: #424242; stroke-width: 1.8; stroke-linecap: round"/>
   </g>
   <g id="line2d_24">
    <path d="M 342.495947 126.263286 
L 342.495947 124.477542 
" clip-path="url(#p0af42f1864)" style="fill: none; stroke: #424242; stroke-width: 1.8; stroke-linecap: round"/>
   </g>
   <g id="line2d_25">
    <path d="M 404.65429 115.820187 
L 404.65429 113.196956 
" clip-path="url(#p0af42f1864)" style="fill: none; stroke: #424242; stroke-width: 1.8; stroke-linecap: round"/>
   </g>
   <g id="line2d_26">
    <path d="M 466.812633 102.424146 
L 466.812633 99.350608 
" clip-path="url(#p0af42f1864)" style="fill: none; stroke: #424242; stroke-width: 1.8; stroke-linecap: round"/>
   </g>
   <g id="line2d_27">
    <path d="M 528.970977 110.644227 
L 528.970977 104.243291 
" clip-path="url(#p0af42f1864)" style="fill: none; stroke: #424242; stroke-width: 1.8; stroke-linecap: round"/>
   </g>
   <g id="line2d_28">
    <path d="M 100.078407 187.727994 
L 100.078407 186.255439 
" clip-path="url(#p0af42f1864)" style="fill: none; stroke: #424242; stroke-width: 1.8; stroke-linecap: round"/>
   </g>
   <g id="line2d_29">
    <path d="M 162.236751 169.946506 
L 162.236751 168.172776 
" clip-path="url(#p0af42f1864)" style="fill: none; stroke: #424242; stroke-width: 1.8; stroke-linecap: round"/>
   </g>
   <g id="line2d_30">
    <path d="M 224.395094 133.028678 
L 224.395094 132.012946 
" clip-path="url(#p0af42f1864)" style="fill: none; stroke: #424242; stroke-width: 1.8; stroke-linecap: round"/>
   </g>
   <g id="line2d_31">
    <path d="M 286.553438 127.287453 
L 286.553438 125.83347 
" clip-path="url(#p0af42f1864)" style="fill: none; stroke: #424242; stroke-width: 1.8; stroke-linecap: round"/>
   </g>
   <g id="line2d_32">
    <path d="M 348.711781 119.682872 
L 348.711781 117.876774 
" clip-path="url(#p0af42f1864)" style="fill: none; stroke: #424242; stroke-width: 1.8; stroke-linecap: round"/>
   </g>
   <g id="line2d_33">
    <path d="M 410.870124 107.631196 
L 410.870124 105.331445 
" clip-path="url(#p0af42f1864)" style="fill: none; stroke: #424242; stroke-width: 1.8; stroke-linecap: round"/>
   </g>
   <g id="line2d_34">
    <path d="M 473.028468 95.74866 
L 473.028468 93.083271 
" clip-path="url(#p0af42f1864)" style="fill: none; stroke: #424242; stroke-width: 1.8; stroke-linecap: round"/>
   </g>
   <g id="line2d_35">
    <path d="M 535.186811 100.838458 
L 535.186811 96.689014 
" clip-path="url(#p0af42f1864)" style="fill: none; stroke: #424242; stroke-width: 1.8; stroke-linecap: round"/>
   </g>
   <g id="line2d_36">
    <path d="M 106.294242 174.576657 
L 106.294242 173.603807 
" clip-path="url(#p0af42f1864)" style="fill: none; stroke: #424242; stroke-width: 1.8; stroke-linecap: round"/>
   </g>
   <g id="line2d_37">
    <path d="M 168.452585 160.994196 
L 168.452585 159.506514 
" clip-path="url(#p0af42f1864)" style="fill: none; stroke: #424242; stroke-width: 1.8; stroke-linecap: round"/>
   </g>
   <g id="line2d_38">
    <path d="M 230.610928 125.214761 
L 230.610928 123.184209 
" clip-path="url(#p0af42f1864)" style="fill: none; stroke: #424242; stroke-width: 1.8; stroke-linecap: round"/>
   </g>
   <g id="line2d_39">
    <path d="M 292.769272 118.449267 
L 292.769272 116.227824 
" clip-path="url(#p0af42f1864)" style="fill: none; stroke: #424242; stroke-width: 1.8; stroke-linecap: round"/>
   </g>
   <g id="line2d_40">
    <path d="M 354.927615 109.611154 
L 354.927615 107.54495 
" clip-path="url(#p0af42f1864)" style="fill: none; stroke: #424242; stroke-width: 1.8; stroke-linecap: round"/>
   </g>
   <g id="line2d_41">
    <path d="M 417.085959 94.388022 
L 417.085959 92.71017 
" clip-path="url(#p0af42f1864)" style="fill: none; stroke: #424242; stroke-width: 1.8; stroke-linecap: round"/>
   </g>
   <g id="line2d_42">
    <path d="M 479.244302 84.15553 
L 479.244302 82.012653 
" clip-path="url(#p0af42f1864)" style="fill: none; stroke: #424242; stroke-width: 1.8; stroke-linecap: round"/>
   </g>
   <g id="line2d_43">
    <path d="M 541.402645 86.330417 
L 541.402645 83.47776 
" clip-path="url(#p0af42f1864)" style="fill: none; stroke: #424242; stroke-width: 1.8; stroke-linecap: round"/>
   </g>
   <g id="line2d_44">
    <path d="M 112.510076 156.606797 
L 112.510076 155.868874 
" clip-path="url(#p0af42f1864)" style="fill: none; stroke: #424242; stroke-width: 1.8; stroke-linecap: round"/>
   </g>
   <g id="line2d_45">
    <path d="M 174.668419 145.711407 
L 174.668419 144.479479 
" clip-path="url(#p0af42f1864)" style="fill: none; stroke: #424242; stroke-width: 1.8; stroke-linecap: round"/>
   </g>
   <g id="line2d_46">
    <path d="M 236.826763 119.901133 
L 236.826763 117.572146 
" clip-path="url(#p0af42f1864)" style="fill: none; stroke: #424242; stroke-width: 1.8; stroke-linecap: round"/>
   </g>
   <g id="line2d_47">
    <path d="M 298.985106 110.573741 
L 298.985106 108.728731 
" clip-path="url(#p0af42f1864)" style="fill: none; stroke: #424242; stroke-width: 1.8; stroke-linecap: round"/>
   </g>
   <g id="line2d_48">
    <path d="M 361.14345 97.972679 
L 361.14345 96.937336 
" clip-path="url(#p0af42f1864)" style="fill: none; stroke: #424242; stroke-width: 1.8; stroke-linecap: round"/>
   </g>
   <g id="line2d_49">
    <path d="M 423.301793 81.113679 
L 423.301793 79.60336 
" clip-path="url(#p0af42f1864)" style="fill: none; stroke: #424242; stroke-width: 1.8; stroke-linecap: round"/>
   </g>
   <g id="line2d_50">
    <path d="M 485.460136 69.792598 
L 485.460136 68.278534 
" clip-path="url(#p0af42f1864)" style="fill: none; stroke: #424242; stroke-width: 1.8; stroke-linecap: round"/>
   </g>
   <g id="line2d_51">
    <path d="M 547.61848 69.838095 
L 547.61848 68.058228 
" clip-path="url(#p0af42f1864)" style="fill: none; stroke: #424242; stroke-width: 1.8; stroke-linecap: round"/>
   </g>
   <g id="line2d_52">
    <path d="M 118.72591 136.176504 
L 118.72591 135.091669 
" clip-path="url(#p0af42f1864)" style="fill: none; stroke: #424242; stroke-width: 1.8; stroke-linecap: round"/>
   </g>
   <g id="line2d_53">
    <path d="M 180.884254 125.060746 
L 180.884254 124.057026 
" clip-path="url(#p0af42f1864)" style="fill: none; stroke: #424242; stroke-width: 1.8; stroke-linecap: round"/>
   </g>
   <g id="line2d_54">
    <path d="M 243.042597 106.346653 
L 243.042597 104.866524 
" clip-path="url(#p0af42f1864)" style="fill: none; stroke: #424242; stroke-width: 1.8; stroke-linecap: round"/>
   </g>
   <g id="line2d_55">
    <path d="M 305.200941 92.946808 
L 305.200941 91.133044 
" clip-path="url(#p0af42f1864)" style="fill: none; stroke: #424242; stroke-width: 1.8; stroke-linecap: round"/>
   </g>
   <g id="line2d_56">
    <path d="M 367.359284 78.951493 
L 367.359284 77.284769 
" clip-path="url(#p0af42f1864)" style="fill: none; stroke: #424242; stroke-width: 1.8; stroke-linecap: round"/>
   </g>
   <g id="line2d_57">
    <path d="M 429.517627 61.124821 
L 429.517627 59.907523 
" clip-path="url(#p0af42f1864)" style="fill: none; stroke: #424242; stroke-width: 1.8; stroke-linecap: round"/>
   </g>
   <g id="line2d_58">
    <path d="M 491.675971 48.999026 
L 491.675971 47.548272 
" clip-path="url(#p0af42f1864)" style="fill: none; stroke: #424242; stroke-width: 1.8; stroke-linecap: round"/>
   </g>
   <g id="line2d_59">
    <path d="M 553.834314 49.113478 
L 553.834314 47.173615 
" clip-path="url(#p0af42f1864)" style="fill: none; stroke: #424242; stroke-width: 1.8; stroke-linecap: round"/>
   </g>
   <g id="line2d_60">
    <path d="M 124.941745 114.441824 
L 124.941745 113.982263 
" clip-path="url(#p0af42f1864)" style="fill: none; stroke: #424242; stroke-width: 1.8; stroke-linecap: round"/>
   </g>
   <g id="line2d_61">
    <path d="M 187.100088 103.388718 
L 187.100088 102.96882 
" clip-path="url(#p0af42f1864)" style="fill: none; stroke: #424242; stroke-width: 1.8; stroke-linecap: round"/>
   </g>
   <g id="line2d_62">
    <path d="M 249.258431 85.561704 
L 249.258431 84.36094 
" clip-path="url(#p0af42f1864)" style="fill: none; stroke: #424242; stroke-width: 1.8; stroke-linecap: round"/>
   </g>
   <g id="line2d_63">
    <path d="M 311.416775 73.557469 
L 311.416775 72.783393 
" clip-path="url(#p0af42f1864)" style="fill: none; stroke: #424242; stroke-width: 1.8; stroke-linecap: round"/>
   </g>
   <g id="line2d_64">
    <path d="M 373.575118 57.416288 
L 373.575118 56.518297 
" clip-path="url(#p0af42f1864)" style="fill: none; stroke: #424242; stroke-width: 1.8; stroke-linecap: round"/>
   </g>
   <g id="line2d_65">
    <path d="M 435.733462 39.784103 
L 435.733462 38.464968 
" clip-path="url(#p0af42f1864)" style="fill: none; stroke: #424242; stroke-width: 1.8; stroke-linecap: round"/>
   </g>
   <g id="line2d_66">
    <path d="M 497.891805 27.492094 
L 497.891805 26.011406 
" clip-path="url(#p0af42f1864)" style="fill: none; stroke: #424242; stroke-width: 1.8; stroke-linecap: round"/>
   </g>
   <g id="line2d_67">
    <path d="M 560.050148 27.225244 
L 560.050148 25.426364 
" clip-path="url(#p0af42f1864)" style="fill: none; stroke: #424242; stroke-width: 1.8; stroke-linecap: round"/>
   </g>
   <g id="patch_75">
    <path d="M 72.107153 232.788 
L 72.107153 15.552 
" style="fill: none; stroke: #cccccc; stroke-linejoin: miter; stroke-linecap: square"/>
   </g>
   <g id="patch_76">
    <path d="M 72.107153 232.788 
L 569.3739 232.788 
" style="fill: none; stroke: #cccccc; stroke-linejoin: miter; stroke-linecap: square"/>
   </g>
  </g>
  <g id="legend_1">
   <g id="text_14">
    <!-- batch_size -->
    <g style="fill: #262626" transform="translate(574.9545 70.27275) scale(0.144 -0.144)">
     <defs>
      <path id="DejaVuSans-63" d="M 3122 3366 
L 3122 2828 
Q 2878 2963 2633 3030 
Q 2388 3097 2138 3097 
Q 1578 3097 1268 2742 
Q 959 2388 959 1747 
Q 959 1106 1268 751 
Q 1578 397 2138 397 
Q 2388 397 2633 464 
Q 2878 531 3122 666 
L 3122 134 
Q 2881 22 2623 -34 
Q 2366 -91 2075 -91 
Q 1284 -91 818 406 
Q 353 903 353 1747 
Q 353 2603 823 3093 
Q 1294 3584 2113 3584 
Q 2378 3584 2631 3529 
Q 2884 3475 3122 3366 
z
" transform="scale(0.015625)"/>
      <path id="DejaVuSans-68" d="M 3513 2113 
L 3513 0 
L 2938 0 
L 2938 2094 
Q 2938 2591 2744 2837 
Q 2550 3084 2163 3084 
Q 1697 3084 1428 2787 
Q 1159 2491 1159 1978 
L 1159 0 
L 581 0 
L 581 4863 
L 1159 4863 
L 1159 2956 
Q 1366 3272 1645 3428 
Q 1925 3584 2291 3584 
Q 2894 3584 3203 3211 
Q 3513 2838 3513 2113 
z
" transform="scale(0.015625)"/>
      <path id="DejaVuSans-7a" d="M 353 3500 
L 3084 3500 
L 3084 2975 
L 922 459 
L 3084 459 
L 3084 0 
L 275 0 
L 275 525 
L 2438 3041 
L 353 3041 
L 353 3500 
z
" transform="scale(0.015625)"/>
     </defs>
     <use xlink:href="#DejaVuSans-62"/>
     <use xlink:href="#DejaVuSans-61" x="63.476562"/>
     <use xlink:href="#DejaVuSans-74" x="124.755859"/>
     <use xlink:href="#DejaVuSans-63" x="163.964844"/>
     <use xlink:href="#DejaVuSans-68" x="218.945312"/>
     <use xlink:href="#DejaVuSans-5f" x="282.324219"/>
     <use xlink:href="#DejaVuSans-73" x="332.324219"/>
     <use xlink:href="#DejaVuSans-69" x="384.423828"/>
     <use xlink:href="#DejaVuSans-7a" x="412.207031"/>
     <use xlink:href="#DejaVuSans-65" x="464.697266"/>
    </g>
   </g>
   <g id="patch_77">
    <path d="M 581.7645 90.297938 
L 608.1645 90.297938 
L 608.1645 81.057938 
L 581.7645 81.057938 
z
" style="fill: #597dbf; stroke: #ffffff; stroke-width: 0.8; stroke-linejoin: miter"/>
   </g>
   <g id="text_15">
    <!-- 1 -->
    <g style="fill: #262626" transform="translate(618.7245 90.297938) scale(0.132 -0.132)">
     <use xlink:href="#DejaVuSans-31"/>
    </g>
   </g>
   <g id="patch_78">
    <path d="M 581.7645 109.673063 
L 608.1645 109.673063 
L 608.1645 100.433063 
L 581.7645 100.433063 
z
" style="fill: #d98b5f; stroke: #ffffff; stroke-width: 0.8; stroke-linejoin: miter"/>
   </g>
   <g id="text_16">
    <!-- 2 -->
    <g style="fill: #262626" transform="translate(618.7245 109.673063) scale(0.132 -0.132)">
     <use xlink:href="#DejaVuSans-32"/>
    </g>
   </g>
   <g id="patch_79">
    <path d="M 581.7645 129.048188 
L 608.1645 129.048188 
L 608.1645 119.808188 
L 581.7645 119.808188 
z
" style="fill: #75bf71; stroke: #ffffff; stroke-width: 0.8; stroke-linejoin: miter"/>
   </g>
   <g id="text_17">
    <!-- 4 -->
    <g style="fill: #262626" transform="translate(618.7245 129.048188) scale(0.132 -0.132)">
     <use xlink:href="#DejaVuSans-34"/>
    </g>
   </g>
   <g id="patch_80">
    <path d="M 581.7645 148.423313 
L 608.1645 148.423313 
L 608.1645 139.183313 
L 581.7645 139.183313 
z
" style="fill: #c76e6e; stroke: #ffffff; stroke-width: 0.8; stroke-linejoin: miter"/>
   </g>
   <g id="text_18">
    <!-- 8 -->
    <g style="fill: #262626" transform="translate(618.7245 148.423313) scale(0.132 -0.132)">
     <use xlink:href="#DejaVuSans-38"/>
    </g>
   </g>
   <g id="patch_81">
    <path d="M 581.7645 167.798438 
L 608.1645 167.798438 
L 608.1645 158.558438 
L 581.7645 158.558438 
z
" style="fill: #9475ab; stroke: #ffffff; stroke-width: 0.8; stroke-linejoin: miter"/>
   </g>
   <g id="text_19">
    <!-- 16 -->
    <g style="fill: #262626" transform="translate(618.7245 167.798438) scale(0.132 -0.132)">
     <use xlink:href="#DejaVuSans-31"/>
     <use xlink:href="#DejaVuSans-36" x="63.623047"/>
    </g>
   </g>
   <g id="patch_82">
    <path d="M 581.7645 187.173563 
L 608.1645 187.173563 
L 608.1645 177.933563 
L 581.7645 177.933563 
z
" style="fill: #826246; stroke: #ffffff; stroke-width: 0.8; stroke-linejoin: miter"/>
   </g>
   <g id="text_20">
    <!-- 32 -->
    <g style="fill: #262626" transform="translate(618.7245 187.173563) scale(0.132 -0.132)">
     <use xlink:href="#DejaVuSans-33"/>
     <use xlink:href="#DejaVuSans-32" x="63.623047"/>
    </g>
   </g>
   <g id="patch_83">
    <path d="M 581.7645 206.548688 
L 608.1645 206.548688 
L 608.1645 197.308688 
L 581.7645 197.308688 
z
" style="fill: #d08abb; stroke: #ffffff; stroke-width: 0.8; stroke-linejoin: miter"/>
   </g>
   <g id="text_21">
    <!-- 64 -->
    <g style="fill: #262626" transform="translate(618.7245 206.548688) scale(0.132 -0.132)">
     <use xlink:href="#DejaVuSans-36"/>
     <use xlink:href="#DejaVuSans-34" x="63.623047"/>
    </g>
   </g>
   <g id="patch_84">
    <path d="M 581.7645 225.923813 
L 608.1645 225.923813 
L 608.1645 216.683813 
L 581.7645 216.683813 
z
" style="fill: #797979; stroke: #ffffff; stroke-width: 0.8; stroke-linejoin: miter"/>
   </g>
   <g id="text_22">
    <!-- 128 -->
    <g style="fill: #262626" transform="translate(618.7245 225.923813) scale(0.132 -0.132)">
     <use xlink:href="#DejaVuSans-31"/>
     <use xlink:href="#DejaVuSans-32" x="63.623047"/>
     <use xlink:href="#DejaVuSans-38" x="127.246094"/>
    </g>
   </g>
  </g>
 </g>
 <defs>
  <clipPath id="p0af42f1864">
   <rect x="72.107153" y="15.552" width="497.266747" height="217.236"/>
  </clipPath>
 </defs>
</svg>
